<svg xmlns="http://www.w3.org/2000/svg" xmlns:xlink="http://www.w3.org/1999/xlink" viewBox="0 0 494 79"><defs><linearGradient id="c" x1="0" x2="494" y1="39.5" y2="39.5" gradientUnits="userSpaceOnUse"><stop offset="0" stop-color="#1a223e"/><stop offset=".28" stop-color="#1b233f" stop-opacity=".95"/><stop offset=".52" stop-color="#1e2745" stop-opacity=".78"/><stop offset=".74" stop-color="#242e4e" stop-opacity=".5"/><stop offset=".95" stop-color="#2d385c" stop-opacity=".11"/><stop offset="1" stop-color="#303b60" stop-opacity="0"/></linearGradient><linearGradient id="a" x1="41.6" x2="41.6" y1="11.64" y2="67.67" gradientUnits="userSpaceOnUse"><stop offset="0" stop-color="#e1b571"/><stop offset="1" stop-color="#feed9c"/></linearGradient><linearGradient xlink:href="#a" id="d" x1="80.12" x2="80.12" y1="11.64" y2="67.67"/><linearGradient xlink:href="#a" id="e" x1="120.42" x2="120.42" y1="11.64" y2="67.67"/><linearGradient xlink:href="#a" id="f" x1="168.79" x2="168.79" y1="11.64" y2="67.67"/><linearGradient xlink:href="#a" id="g" x1="207.51" x2="207.51" y1="11.64" y2="67.67"/><linearGradient xlink:href="#a" id="h" x1="246.19" x2="246.19" y1="11.64" y2="67.67"/><linearGradient id="b" x1="0" x2="494" y1="78" y2="78" gradientUnits="userSpaceOnUse"><stop offset="0" stop-color="#e1b571"/><stop offset=".78" stop-color="#feed9c"/><stop offset="1" stop-color="#feed9c" stop-opacity="0"/></linearGradient><linearGradient xlink:href="#b" id="i" y1="1" y2="1"/></defs><path d="M0 2h494v75H0z" style="fill:url(#c)"/><path d="M42.05 32.6c-.43.82-.95 1.85-1.46 3.1l-1.76 3.96c-.65 1.38-1.33 2.67-2.02 3.87-.73 1.25-1.46 2.24-2.24 2.97-1.38 1.29-3.01 1.89-4.9 1.89-.86 0-1.63-.13-2.32-.43-.69-.26-1.42-.73-2.15-1.5.99.26 1.98.21 2.97-.09.95-.26 1.81-.73 2.58-1.38.69-.52 1.33-1.29 1.98-2.24.6-.95 1.2-1.94 1.72-3.01.52-1.03.95-2.11 1.38-3.14.39-1.03.73-1.89.99-2.67-.65.09-1.29.21-1.89.39-.65.22-1.25.39-1.85.52-.6.17-1.2.26-1.76.26-.6.04-1.16-.09-1.68-.39-.69-.3-1.16-.77-1.51-1.38-.39-.6-.73-1.38-1.03-2.32.99.34 1.98.52 3.01.52.95.04 1.94-.04 2.97-.21.95-.17 1.98-.43 3.01-.77.99-.3 2.02-.69 3.14-1.12.9.26 1.59.6 2.11 1.08.43.52.69 1.2.73 2.11ZM58 47.86c0 1.55-.13 2.92-.39 4.13-.3 1.2-.65 2.32-1.07 3.31-.47.95-.99 1.76-1.5 2.45-.6.65-1.16 1.16-1.68 1.59 0-1.12.04-2.11.13-2.97 0-.95.04-1.81.09-2.58 0-.82 0-1.59.04-2.41v-9.33c-.56.34-1.12.69-1.72 1.12l-1.76 1.2-1.38 1.03c-.39.3-.6.43-.65.43-.26 0-.52-.04-.86-.17-.34-.09-.69-.21-.95-.47-.34-.17-.6-.47-.77-.86-.26-.34-.34-.82-.34-1.42v-9.42c0-.95-.04-1.85-.13-2.71-.13-.82-.3-1.59-.56-2.32-.26-.69-.65-1.33-1.07-1.94-.47-.6-1.08-1.16-1.81-1.76 1.29 0 2.45.04 3.44.13.95.17 1.81.43 2.49.77.6.34 1.12.86 1.46 1.55.3.73.47 1.76.47 3.1v10.75c.65-.26 1.38-.69 2.15-1.29.73-.52 1.38-1.2 1.98-2.02v-6.97c0-1.68-.04-3.01-.09-3.96-.09-.95-.21-1.68-.39-2.28-.26-.86-.65-1.68-1.16-2.49-.52-.77-1.25-1.51-2.15-2.28 1.33 0 2.54.04 3.57.13.99.13 1.85.39 2.54.73.69.39 1.2.95 1.55 1.68.34.77.52 1.76.52 3.05v22.49Z" style="fill:url(#a)"/><path d="M81.65 30.36c-.43.82-.99 1.81-1.76 2.97-.82 1.2-1.68 2.41-2.62 3.61.65.09 1.33.22 2.11.39.73.17 1.42.39 2.11.65.6.3 1.16.65 1.59.99.43.43.65.86.65 1.38 0 .26-.04.52-.13.77-.13.3-.26.56-.43.77-.17.26-.39.43-.6.56-.26.17-.47.26-.73.26-.3 0-.56-.04-.73-.17-.21-.09-.43-.3-.6-.56-.26-.21-.52-.52-.77-.9-.3-.34-.69-.73-1.16-1.25l-.95-.77c-.43-.26-.86-.56-1.33-.9-.73.86-1.42 1.68-2.11 2.36-.73.77-1.42 1.33-2.02 1.76s-1.25.73-1.94.95c-.77.26-1.5.39-2.19.39s-1.33-.09-1.94-.3c-.65-.17-1.29-.6-1.98-1.29.43.09.95.09 1.46-.04.47-.09.95-.21 1.38-.43.43-.17.82-.34 1.16-.6.34-.17.6-.34.77-.43.69-.43 1.38-.99 2.15-1.76.69-.69 1.42-1.46 2.11-2.32.69-.82 1.29-1.63 1.85-2.49.52-.82.95-1.55 1.29-2.19-.6.09-1.16.26-1.76.43-.65.22-1.25.39-1.81.56-.6.17-1.2.3-1.76.34-.6.09-1.12-.04-1.59-.3-.6-.3-1.07-.73-1.38-1.29-.34-.52-.65-1.2-.95-2.11.9.3 1.85.43 2.88.39.95 0 1.98-.13 3.01-.39 1.03-.21 2.06-.52 3.1-.9 1.03-.34 2.02-.69 3.05-1.12 1.68.43 2.54 1.46 2.58 3.01Zm-3.23-7.18c.34.09.6.3.77.65.13.34.17.73.13 1.12-.09.43-.26.82-.52 1.16-.34.43-.77.69-1.38.77-.3.09-.65.09-.99.09-.43 0-.82 0-1.2-.04-.43 0-.86 0-1.2-.09-.43-.04-.77-.13-1.08-.21-.43-.09-.82-.26-1.16-.56-.39-.26-.73-.6-.99-1.03-.3-.39-.52-.86-.65-1.42-.17-.52-.21-1.12-.13-1.81.99.34 2.24.69 3.78 1.03 1.5.34 3.05.47 4.6.34Zm16.25 29.71c0 1.12-.13 2.11-.39 2.92-.26.77-.6 1.46-1.03 2.02-.47.52-.99.95-1.55 1.29-.6.26-1.25.47-1.85.6.26-1.03.43-1.93.6-2.71.09-.86.17-1.68.26-2.45 0-.82.04-1.68.04-2.54-.04-.86-.09-1.89-.13-3.01 0-.26-.09-.47-.21-.73-.17-.22-.39-.43-.6-.6a4.59 4.59 0 0 0-.86-.3c-.34-.04-.65 0-.95.09-.52.17-1.2.43-2.15.73-.95.34-1.98.69-3.01 1.03-1.08.34-2.06.65-3.01.86-.99.26-1.72.39-2.19.39-.69 0-1.29-.26-1.81-.82-.6-.52-1.03-1.16-1.33-1.89.95-.13 1.98-.39 3.18-.73 1.12-.34 2.32-.69 3.53-1.12 1.55-.82 3.05-1.63 4.52-2.49 1.38-.82 2.58-1.59 3.53-2.32.47-.34.86-.69 1.2-.99.3-.26.56-.52.73-.77.17-.26.26-.52.34-.82.04-.26.09-.56.09-.9v-2.88c-1.12.6-2.15 1.12-3.14 1.55-1.03.47-1.85.69-2.41.69-.64 0-1.2-.09-1.72-.34-.52-.22-.99-.52-1.33-.95-.43-.34-.73-.77-.99-1.29-.26-.47-.43-.99-.52-1.55.95 0 1.85 0 2.71-.09.82-.04 1.63-.13 2.45-.3.77-.09 1.55-.26 2.37-.47.77-.17 1.63-.39 2.58-.73v-1.81c0-1.12-.04-2.11-.09-2.88-.09-.77-.17-1.42-.34-2.02-.26-.86-.65-1.68-1.16-2.49-.52-.77-1.25-1.51-2.15-2.28 1.33 0 2.54.04 3.57.13 1.03.13 1.89.39 2.58.73.69.39 1.2.95 1.59 1.68.34.77.52 1.76.52 3.05v11.44c0 .77-.13 1.38-.34 1.72-.26.43-.6.77-1.12 1.07-.99.6-2.19 1.29-3.57 2.06l-4.47 2.49c.9-.26 1.72-.52 2.49-.69.73-.17 1.38-.26 1.89-.3l1.25.65 1.55 1.03 1.38 1.07c.34.34.56.65.56.82s-.09.39-.17.69c-.13.34-.26.69-.34 1.03-.17.43-.3.82-.39 1.2-.13.43-.17.77-.17 1.12v2.11Z" style="fill:url(#d)"/><path d="m129.98 39.87 1.42-1.72c.43-.56.86-1.12 1.38-1.72.52-.6.99-1.07 1.42-1.42.43-.3.86-.47 1.33-.47.3 0 .65.09 1.08.26.34.17.73.39 1.07.65.34.3.65.6.9.9.21.34.34.69.34.95 0 .34-.21.65-.6.9-.43.34-1.16.69-2.15 1.12-1.2.52-2.28.99-3.18 1.46l-2.97 1.68c-.43.3-1.07.69-1.94 1.16l-2.92 1.68c-1.12.65-2.19 1.29-3.31 1.89l-3.05 1.85c-.95.6-1.72 1.12-2.28 1.55-.6.47-.9.82-.9.99 0 .43.17.86.56 1.2.34.34.77.69 1.38.99.52.26 1.12.52 1.81.69.6.13 1.25.21 1.85.21 1.29 0 2.45-.21 3.48-.65.95-.43 1.81-.95 2.58-1.46.69-.52 1.33-.99 1.85-1.5.52-.47.95-.77 1.33-.86.26-.09.6-.04 1.03.09.39.17.77.43 1.12.69.34.3.6.6.86.95.17.34.26.69.21.99-.17.95-.69 1.81-1.55 2.54-.9.69-1.94 1.25-3.1 1.76-1.2.43-2.41.77-3.66 1.03-1.29.21-2.45.34-3.4.34-1.03 0-2.15-.09-3.35-.26-1.29-.17-2.45-.47-3.48-.82-1.12-.39-2.02-.86-2.71-1.46-.77-.65-1.12-1.42-1.12-2.32 0-.26.04-.47.21-.69.13-.26.3-.47.56-.73.56-.56 1.29-1.16 2.19-1.81.86-.6 1.76-1.25 2.79-1.89.95-.6 1.98-1.2 3.01-1.81l2.88-1.68c.86-.52 1.59-.99 2.24-1.42.6-.39 1.03-.73 1.29-1.03-.43 0-.73-.13-.82-.47-.17-.26-.22-.69-.22-1.29v-3.87c-1.03.95-2.19 1.81-3.57 2.67-1.42.9-2.84 1.68-4.26 2.37-1.46.69-2.88 1.25-4.17 1.68-1.33.43-2.45.65-3.31.65-.65 0-1.2-.13-1.72-.39-.56-.26-1.03-.6-1.38-1.03-.39-.43-.69-.9-.86-1.5-.26-.52-.34-1.12-.34-1.72 0-1.29.21-2.45.69-3.44.43-.95 1.03-1.89 1.89-2.92-.69.21-1.38.34-2.02.43-.69.09-1.2.13-1.5.13-.52 0-.99-.13-1.33-.47-.39-.26-.69-.65-.9-1.07-.26-.43-.47-.9-.56-1.42-.17-.52-.21-.99-.21-1.42.34.09.69.17 1.03.22.3.09.6.13.95.13.26.04.6.04.95.04.34.04.73.04 1.16.04.99 0 1.98-.13 2.92-.47.9-.26 1.81-.56 2.67-.9.26-.09.6-.26 1.08-.52l1.46-.73c.47-.21.95-.43 1.46-.6.43-.17.82-.21 1.12-.17.34.09.65.3.9.65.17.34.3.73.39 1.12.04.43 0 .82-.09 1.16-.13.43-.34.69-.6.86-.26.13-.6.26-1.08.43l-1.55.65c-.6.26-1.12.52-1.63.77-.52.26-.9.52-1.16.77-.47.52-.82.99-1.08 1.46-.26.52-.47.95-.56 1.38-.17.43-.26.82-.26 1.16-.04.34-.04.6-.04.77 0 .77.13 1.33.47 1.72.26.43.77.65 1.55.65.52 0 1.33-.13 2.45-.39 1.08-.26 2.28-.65 3.61-1.16 1.29-.47 2.58-1.08 3.91-1.85 1.29-.73 2.49-1.59 3.53-2.58v-3.35c0-1.68-.04-3.01-.09-3.96-.09-.95-.21-1.68-.39-2.28-.26-.86-.65-1.68-1.16-2.49-.52-.77-1.25-1.51-2.15-2.28 1.33 0 2.54.04 3.57.13 1.03.13 1.89.39 2.62.73.69.39 1.2.95 1.59 1.68.34.77.52 1.76.52 3.05v14.49Z" style="fill:url(#e)"/><path d="M150.28 40.77c2.41.52 4.99.73 7.7.65 2.67 0 5.2-.17 7.7-.47 2.49-.26 4.64-.6 6.45-.95 1.81-.3 3.35-.6 4.69-.9 1.29-.26 2.45-.52 3.4-.73.95-.17 1.81-.3 2.62-.3.56 0 1.12.09 1.68.26.52.17 1.03.39 1.46.65.39.26.73.56.99.86.21.34.34.65.34.9 0 .56-.26 1.03-.77 1.42-.52.43-1.46.6-2.84.6-.43 0-.9 0-1.5-.09-.65 0-1.29-.04-1.94-.04-.99 0-1.98.04-2.92.09-1.03.09-2.02.13-3.01.21l-.26 1.89c-.17.65-.3 1.16-.47 1.5-.26.56-.65.99-1.16 1.29-.56.34-1.12.6-1.63.82-.95.39-1.85.73-2.62 1.07l-2.19.99c-.65.34-1.12.6-1.46.77-.39.26-.56.39-.56.47 0 .43.17.86.56 1.2.34.34.77.65 1.38.9.52.26 1.12.43 1.81.6.65.13 1.25.21 1.85.21 1.29 0 2.45-.21 3.48-.65.95-.43 1.81-.95 2.58-1.46.69-.52 1.33-.99 1.85-1.5.52-.47.95-.77 1.33-.86.26-.09.6-.04 1.03.09.39.17.77.43 1.12.69.34.3.6.6.86.95.17.34.26.69.21.99-.17.95-.69 1.81-1.55 2.54-.9.69-1.94 1.25-3.1 1.76-1.2.43-2.41.77-3.66 1.03-1.29.21-2.45.34-3.4.34-1.03 0-2.15-.09-3.35-.26-1.29-.17-2.45-.47-3.48-.82-1.12-.39-2.02-.86-2.71-1.46-.77-.65-1.12-1.42-1.12-2.32 0-.26.04-.47.21-.65.09-.22.34-.43.77-.77.99-.73 2.28-1.42 3.83-2.11 1.5-.6 3.18-1.42 4.99-2.41.09-.04.21-.21.3-.52.04-.26.09-.56.17-.99.04-.39.09-.86.13-1.38v-1.46l-4.17.65c-1.38.26-2.67.52-3.91.73-1.46.34-2.62.56-3.48.65-.9.17-1.76.21-2.54.21-.95 0-1.68-.17-2.28-.56-.65-.34-1.16-.77-1.55-1.2-.43-.47-.82-.99-1.08-1.59a6.58 6.58 0 0 1-.77-1.55Zm12.73-11.57c-.95.09-1.72-.13-2.32-.69-.65-.52-1.03-1.5-1.2-3.01 1.59.17 3.4.3 5.37.3 1.94.04 4.08-.13 6.41-.52 2.15-.34 4.21-.86 6.19-1.63.56.17 1.03.39 1.42.65.34.26.52.6.52.99 0 .56-.17.99-.52 1.29-.39.34-.86.56-1.42.6-.39.04-.77.09-1.12.17-.43.09-.82.22-1.16.34l-2.28.95c-.95.43-1.85.86-2.71 1.33-.86.52-1.59 1.08-2.19 1.68-.65.6-.95 1.25-.95 1.85 0 .73.3 1.25.9 1.59.6.39 1.29.56 2.06.56.9 0 1.68-.21 2.32-.69.6-.43.95-1.03.95-1.89 0-.6-.13-1.2-.39-1.85-.26-.6-.69-1.12-1.29-1.46.65 0 1.33 0 2.02.09s1.33.26 1.94.47c.56.26 1.08.52 1.5.86.43.34.69.77.86 1.2 0 .95-.26 1.76-.73 2.45a6.92 6.92 0 0 1-1.85 1.81c-.77.52-1.63.86-2.58 1.07-.95.26-1.89.39-2.79.39-.69 0-1.46-.04-2.28-.13-.86-.09-1.63-.26-2.37-.52-.77-.26-1.42-.6-1.94-1.12-.6-.47-.99-1.12-1.16-1.98 0-.77.3-1.5.99-2.19.6-.69 1.42-1.29 2.45-1.89.95-.56 2.02-1.08 3.22-1.59 1.16-.43 2.28-.86 3.35-1.2-.56.13-1.07.22-1.5.3-.52.13-.82.21-.95.21-.34.09-.82.21-1.42.3-.6.13-1.25.26-1.89.34-.69.17-1.33.26-1.94.34-.65.13-1.16.21-1.55.21Zm10.88-8.6c.34.09.6.26.77.52.13.3.17.6.13.95-.09.34-.26.69-.52.99-.34.34-.77.56-1.38.65-.3.09-.65.09-.99.09-.43.04-.82.04-1.2 0-.43 0-.86 0-1.2-.09-.43 0-.77-.09-1.07-.17-.43-.09-.82-.22-1.16-.47-.39-.17-.73-.47-.99-.82-.3-.34-.52-.73-.64-1.25-.17-.47-.22-1.03-.13-1.72.99.34 2.24.69 3.78.99 1.5.34 3.05.47 4.6.34Z" style="fill:url(#f)"/><path d="M208.46 36.08c1.72.17 3.44.04 5.12-.3 1.63-.3 3.1-.69 4.47-1.2v-5.12c-.17.43-.47.82-.82 1.16-.39.43-.82.77-1.25 1.03-.47.34-.9.6-1.29.77-.43.26-.77.39-1.03.47.17-.17.39-.43.65-.73.17-.26.3-.47.3-.73 0-.21-.09-.39-.26-.56-.17-.13-.56-.21-1.12-.21-1.12 0-2.15.3-3.1.86-.99.6-1.76 1.42-2.32 2.54-.26.52-.47 1.12-.6 1.89-.17.77-.39 1.59-.56 2.45-.21.9-.47 1.76-.77 2.62-.34.9-.82 1.72-1.38 2.41-.6.73-1.33 1.29-2.19 1.72-.9.47-2.02.69-3.35.69-.65 0-1.2-.26-1.63-.77-.47-.52-.69-1.12-.69-1.85 0-.95.09-1.76.26-2.54.17-.73.26-1.42.26-2.02 0-.39-.39-.65-1.12-.82-.77-.09-1.76-.17-2.97-.26-.34 0-.65-.17-.82-.47-.21-.26-.3-.56-.3-.95-.04-.34.04-.73.26-1.12.17-.34.43-.6.86-.82.21-.09.56-.17.99-.26.39-.04.69-.13.95-.21 1.16-.52 2.11-1.08 2.84-1.68.69-.56 1.03-1.12 1.03-1.68 0-.43-.22-.77-.65-1.03-.43-.26-.99-.47-1.59-.65-.69-.13-1.38-.21-2.11-.3-.77-.04-1.5-.09-2.15-.13.6-.43 1.2-.82 1.76-1.16.52-.3 1.03-.56 1.55-.77.47-.17.99-.34 1.5-.43.47-.09 1.03-.13 1.63-.13.47 0 .99.13 1.55.3.52.26.99.52 1.46.86.43.34.82.73 1.12 1.12.26.43.43.86.43 1.25 0 .69-.21 1.33-.65 2.02-.43.73-1.07 1.42-1.94 2.02l-1.25.9c-.47.34-.95.65-1.42.9.3.09.64.21.99.3.34.17.65.3.95.43.26.17.47.39.65.56.17.22.26.43.26.69s-.04.56-.09.9c-.09.39-.17.73-.22 1.07-.09.39-.17.73-.21 1.03-.09.34-.13.65-.13.82 0 .69.39.99 1.25.99.77 0 1.42-.34 1.98-1.07.52-.69.95-1.5 1.38-2.54.39-.99.77-2.02 1.12-3.14.34-1.08.73-2.02 1.2-2.79.34-.6.82-1.25 1.42-1.89.56-.6 1.2-1.12 1.98-1.63.69-.43 1.5-.82 2.36-1.16.86-.26 1.76-.43 2.79-.43.56 0 1.03.13 1.46.3.34.26.6.47.77.73-.04-1.63-.17-2.88-.43-3.78-.26-.86-.65-1.68-1.16-2.49-.56-.77-1.29-1.51-2.19-2.28 1.33 0 2.54.04 3.57.13 1.03.13 1.89.39 2.62.73.69.39 1.2.95 1.59 1.68.34.77.52 1.76.52 3.05v15.78c0 .69-.17 1.25-.47 1.68-.34.43-.69.82-1.12 1.07-.13.09-.6.34-1.42.73l-3.01 1.46-3.78 1.85-3.74 1.85-2.84 1.46c-.77.43-1.16.65-1.16.73 0 .43.17.82.56 1.16.34.3.77.56 1.38.82.52.21 1.12.39 1.81.52.65.09 1.25.17 1.85.17 1.29 0 2.45-.21 3.48-.65.95-.43 1.81-.95 2.58-1.46.69-.52 1.33-.99 1.85-1.5.52-.47.95-.77 1.33-.86.26-.09.6-.04 1.03.09.39.17.77.43 1.12.69.34.3.6.6.86.95.17.34.26.69.21.99-.17.95-.69 1.81-1.55 2.54-.9.69-1.94 1.25-3.1 1.76-1.2.43-2.41.77-3.65 1.03-1.29.21-2.45.34-3.4.34-1.03 0-2.15-.09-3.35-.26-1.29-.17-2.45-.47-3.48-.82-1.12-.39-2.02-.86-2.71-1.46-.77-.65-1.12-1.42-1.12-2.32 0-.26.04-.47.22-.69.09-.26.34-.47.77-.73.99-.65 2.11-1.29 3.31-1.94 1.16-.6 2.36-1.25 3.61-1.85l3.65-1.68c1.2-.52 2.28-1.08 3.31-1.59 1.03-.52 1.72-1.07 2.02-1.68.26-.56.43-1.08.43-1.59v-4.39c-1.29.73-2.58 1.25-3.91 1.59-.3.09-.65.17-.99.22-.43.09-.82.13-1.2.13-.43.04-.77.04-1.12-.04-.34-.04-.65-.17-.82-.34-.52-.43-.86-.95-1.03-1.46-.21-.47-.39-.99-.52-1.59Z" style="fill:url(#g)"/><path d="M227.68 48.77c2.41.52 4.99.73 7.7.65 2.67 0 5.2-.17 7.7-.47.13 0 .34 0 .65-.09.9-.77 1.59-1.55 2.06-2.24.43-.69.64-1.46.64-2.41s-.17-1.59-.52-2.02c-.34-.43-1.03-.82-1.98-1.2.34-.34.86-.6 1.5-.77.6-.13 1.2-.21 1.76-.21 1.03 0 1.85.3 2.49.9.6.6.95 1.38.95 2.32 0 .86-.22 1.72-.6 2.58-.43.9-.9 1.72-1.46 2.41 1.5-.26 2.84-.52 4.04-.77l3.14-.69c.9-.17 1.72-.34 2.45-.52.69-.09 1.38-.17 2.02-.17.56 0 1.12.09 1.68.26.52.17 1.03.39 1.46.65.39.26.73.56.99.86.21.34.34.65.34.9 0 .56-.26 1.03-.77 1.42-.52.43-1.46.6-2.84.6-.43 0-.9 0-1.5-.09-.65 0-1.29-.04-1.94-.04-3.14 0-6.28.26-9.42.69-3.18.47-6.15.99-8.86 1.5l-3.48.69c-.9.09-1.76.17-2.54.17-.95 0-1.68-.22-2.28-.56-.65-.39-1.16-.77-1.55-1.2-.43-.47-.82-.99-1.08-1.59a6.58 6.58 0 0 1-.77-1.55Zm24.77-8.47c.77-.52 1.33-1.03 1.63-1.63.26-.52.39-1.08.39-1.68 0-.47-.21-.9-.65-1.33a7.6 7.6 0 0 0-1.68-.99c-.69-.26-1.46-.47-2.32-.65-.9-.17-1.81-.3-2.71-.39-.69 1.03-1.46 1.98-2.32 2.92-.86.95-1.76 1.81-2.62 2.54-.95.77-1.85 1.33-2.75 1.76-.95.47-1.81.69-2.58.69-1.46 0-2.67-.39-3.66-1.25.73-.17 1.63-.69 2.75-1.55 1.03-.82 2.11-1.81 3.18-2.92 1.03-1.12 2.02-2.28 2.92-3.57.86-1.25 1.5-2.41 1.89-3.53.3-.86.34-1.63.09-2.32-.3-.69-.99-1.16-2.11-1.5 1.03-.17 2.02-.34 3.05-.43.95-.09 1.85-.09 2.62 0 .77.13 1.38.34 1.89.69.43.34.69.86.69 1.5 0 .69-.21 1.55-.6 2.54-.43 1.03-.99 2.06-1.68 3.18.95-.17 2.06-.3 3.44-.3 1.29 0 2.58.13 3.83.34 1.2.26 2.24.6 3.1 1.03.82.52 1.25 1.12 1.25 1.85 0 2.15-2.37 3.83-7.05 4.99Z" style="fill:url(#h)"/><path d="M0 77h494v2H0z" style="fill:url(#b)"/><path d="M0 0h494v2H0z" style="fill:url(#i)"/></svg>